<?xml version="1.0" encoding="UTF-8"?>
<svg width="32px" height="33px" viewBox="0 0 32 33" version="1.1" xmlns="http://www.w3.org/2000/svg" xmlns:xlink="http://www.w3.org/1999/xlink">
    <!-- Generator: Sketch 52.3 (67297) - http://www.bohemiancoding.com/sketch -->
    <title>ic_gallery</title>
    <desc>Created with Sketch.</desc>
    <g id="ic_gallery" stroke="none" stroke-width="1" fill="none" fill-rule="evenodd">
        <g transform="translate(0.000000, 0.666667)">
            <polygon id="Path" points="0 0 32 0 32 32 0 32"></polygon>
            <path d="M25.3333333,6.66666667 L25.3333333,25.3333333 L6.66666667,25.3333333 L6.66666667,6.66666667 L25.3333333,6.66666667 Z M25.3333333,4 L6.66666667,4 C5.2,4 4,5.2 4,6.66666667 L4,25.3333333 C4,26.8 5.2,28 6.66666667,28 L25.3333333,28 C26.8,28 28,26.8 28,25.3333333 L28,6.66666667 C28,5.2 26.8,4 25.3333333,4 Z M18.8533333,15.8133333 L14.8533333,20.9733333 L12,17.52 L8,22.6666667 L24,22.6666667 L18.8533333,15.8133333 Z" id="Shape" fill="#FFFFFF" fill-rule="nonzero"></path>
        </g>
    </g>
</svg>