<?xml version="1.0" encoding="UTF-8"?>
<svg width="18px" height="16px" viewBox="0 0 18 16" version="1.1" xmlns="http://www.w3.org/2000/svg" xmlns:xlink="http://www.w3.org/1999/xlink">
    <!-- Generator: Sketch 52.3 (67297) - http://www.bohemiancoding.com/sketch -->
    <title>btn_like_suggestion</title>
    <desc>Created with Sketch.</desc>
    <g id="Instagram-Example" stroke="none" stroke-width="1" fill="none" fill-rule="evenodd">
        <g id="Home" transform="translate(-17.000000, -373.000000)" stroke="#ADADAD">
            <g id="Post-1" transform="translate(0.000000, 67.000000)">
                <g id="Footer" transform="translate(0.000000, 295.000000)">
                    <g id="Like" transform="translate(18.000000, 10.000000)">
                        <path d="M7.9412572,16 L7.38008073,15.5464706 C4.03243367,12.8420588 2.01096308,11.2114706 0.860374846,9.08235294 C0.0133160227,7.51970588 -0.213448683,5.97823529 0.203021905,4.62558824 C0.55243367,3.49441176 1.33949249,2.58294118 2.4212572,2.06058824 C2.97802191,1.79147059 3.58243367,1.65558824 4.21949249,1.65558824 C5.73713955,1.65558824 7.16566896,2.44794118 7.9412572,3.67617647 C8.71684543,2.44794118 10.1471396,1.65558824 11.6630219,1.65558824 C12.3000807,1.65558824 12.9044925,1.79147059 13.4603748,2.05970588 C14.5430219,2.58294118 15.3300807,3.49441176 15.6794925,4.62558824 C16.0959631,5.97823529 15.868316,7.51970588 15.0221396,9.08235294 C13.870669,11.2123529 11.8474337,12.8455882 8.49537485,15.5517647 L7.9412572,16 Z" id="btn_like_suggestion"></path>
                    </g>
                </g>
            </g>
        </g>
    </g>
</svg>